<svg width="1412" height="1412" viewBox="0 0 1412 1412" fill="none" xmlns="http://www.w3.org/2000/svg">
<path d="M1045.4 945.76H809.854V863.593H935.844V647.767H919.41V847.159H809.854V565.6H1045.4V945.76ZM1144 945.76H1061.83V565.6H1144V945.76Z" fill="white"/>
<path d="M245.641 847.159H92.2627V863.593H344.241V945.76H10.0957V763.897H245.641V847.159ZM344.241 647.767H92.2627V664.201H344.241V847.159H262.074V747.464H10.0957V565.6H344.241V647.767Z" fill="white"/>
<path d="M343.146 467L342.491 549.167H9L9.64419 467H343.146Z" fill="white"/>
<rect x="711.253" y="565.6" width="82.167" height="380.159" fill="white"/>
<path d="M596.22 664.201H612.653V565.6H694.82V945.76H612.653V746.368H596.22V945.76H360.675V664.201H442.842V647.767H360.675V565.6H596.22V664.201ZM470.23 863.593H486.664V746.368H470.23V863.593Z" fill="white"/>
<path d="M793.42 467L792.926 549.167H711.253L711.756 467H793.42Z" fill="white"/>
</svg>
